<svg width="593" height="177" viewBox="0 0 593 177" fill="none" xmlns="http://www.w3.org/2000/svg">
<path d="M1.5629 23H60.432L69.2885 24.5174L77.6239 27.0463L87.5223 31.5984L94.8158 36.6564L100.025 41.2085L105.756 46.7722L110.445 53.3475L114.092 59.417L117.217 67.0039L119.301 73.5791L120.864 83.1892V94.3166L119.301 103.927L116.696 112.525L112.008 122.135L107.84 128.205L102.109 134.78L96.3787 139.838L89.6061 144.39L79.7078 149.448L70.3304 152.483L61.9949 154H1.5629L0 152.483V24.5174L1.5629 23ZM18.7548 41.7143V135.286H60.432L69.8094 133.263L78.6658 129.216L84.3965 125.17L89.6061 120.618L93.7738 115.56L97.9416 108.479L100.546 101.398L102.109 91.2818V86.2239L101.067 79.1429L98.4625 71.0502L94.8158 63.9691L89.6061 57.3938L84.3965 52.3359L77.6239 47.7838L69.8094 44.2432L62.5159 42.2201L58.8691 41.7143H18.7548Z" fill="#7B00FF"/>
<path d="M61.9174 89.313C61.9174 89.313 39.7065 65 42.2092 65C44.7118 65 81 77.313 81 89.313C81 101.313 45.546 113 42.3134 113C39.0809 113 61.9174 89.313 61.9174 89.313Z" fill="#7B00FF" stroke="#8000FF"/>
<path d="M203.6 43.144C213.072 43.144 221.349 45.0213 228.432 48.776C235.515 52.5307 240.976 57.8213 244.816 64.648C248.741 71.3893 250.704 79.1973 250.704 88.072C250.704 96.8613 248.741 104.669 244.816 111.496C240.976 118.323 235.472 123.613 228.304 127.368C221.221 131.123 212.987 133 203.6 133H169.936V43.144H203.6ZM202.192 114.056C210.469 114.056 216.912 111.795 221.52 107.272C226.128 102.749 228.432 96.3493 228.432 88.072C228.432 79.7947 226.128 73.352 221.52 68.744C216.912 64.136 210.469 61.832 202.192 61.832H191.824V114.056H202.192ZM284.824 60.68V78.856H314.136V95.752H284.824V115.464H317.976V133H262.936V43.144H317.976V60.68H284.824ZM354.074 116.104H382.746V133H332.186V43.144H354.074V116.104ZM477.538 43.144L445.666 133H418.274L386.402 43.144H409.698L431.97 110.984L454.37 43.144H477.538ZM542.622 117.128H509.086L503.71 133H480.798L513.31 43.144H538.654L571.166 133H547.998L542.622 117.128ZM536.99 100.232L525.854 67.336L514.846 100.232H536.99Z" fill="#7B00FF"/>
</svg>
